<?xml version="1.0" encoding="utf-8"?>
<!-- Generator: Adobe Illustrator 19.2.1, SVG Export Plug-In . SVG Version: 6.00 Build 0)  -->
<svg version="1.1" id="Layer_1" xmlns="http://www.w3.org/2000/svg" xmlns:xlink="http://www.w3.org/1999/xlink" x="0px" y="0px"
	 viewBox="0 0 72 72" style="enable-background:new 0 0 72 72;" xml:space="preserve">
<style type="text/css">
	.st0{fill:#FF4900;}
</style>
<g id="LinkedIn_1_">
	<rect x="5.6" y="25.6" class="st0" width="12.5" height="39.5"/>
	<path class="st0" d="M52.2,25.2c-7.1,0-11.6,3.9-12.4,6.6v-6.2h-14c0.2,3.3,0,39.5,0,39.5h14V43.7c0-1.2-0.1-2.4,0.3-3.2
		c1-2.4,3-4.8,6.7-4.8c4.9,0,7.1,3.7,7.1,9v20.4H68v-22C68,30.9,61,25.2,52.2,25.2z"/>
	<path class="st0" d="M11.6,6.9C7,6.9,4,9.9,4,13.8c0,3.8,2.9,6.8,7.4,6.8h0.1c4.7,0,7.6-3,7.6-6.9C19.1,9.9,16.2,6.9,11.6,6.9z"/>
</g>
</svg>
