<?xml version="1.0" encoding="utf-8"?>
<!-- Generator: Adobe Illustrator 19.2.1, SVG Export Plug-In . SVG Version: 6.00 Build 0)  -->
<svg version="1.1" id="Layer_1" xmlns="http://www.w3.org/2000/svg" xmlns:xlink="http://www.w3.org/1999/xlink" x="0px" y="0px"
	 viewBox="0 0 256 205.8" style="enable-background:new 0 0 256 205.8;" xml:space="preserve">
<style type="text/css">
	.st0{fill:none;stroke:#00ECEC;stroke-width:2;stroke-miterlimit:10;}
</style>
<title>admin</title>
<path class="st0" d="M255,152.5v17.1c0,3.5-2.8,6.3-6.2,6.3c0,0,0,0-0.1,0H7.3c-3.5,0-6.3-2.8-6.3-6.2c0,0,0,0,0-0.1v-17.1H255z"/>
<path class="st0" d="M255,7.3c0-3.5-2.8-6.3-6.2-6.3c0,0,0,0-0.1,0H7.3C3.8,1,1,3.8,1,7.3v145.1h254V7.3z"/>
<path class="st0" d="M160.7,204H95.2c-5.8,0-5.8-0.5-5.8-0.5l7.8-2.1c1.1-0.4,2.1-1.1,2.7-2.1c0.8-1.9,1.4-3.9,1.6-5.9l1.3-17.6
	h50.4l1.3,17.6c0.2,2,0.7,4,1.6,5.9c0.6,1,1.6,1.7,2.7,2.1l7.8,2.1C166.6,203.6,166.5,204,160.7,204z"/>
<path class="st0" d="M160.7,204H95.2c-5.8,0-5.8-0.5-5.8-0.5l7.8-2.1c1.1-0.4,2.1-1.1,2.7-2.1c0.8-1.9,1.4-3.9,1.6-5.9l1.3-17.6
	h50.4l1.3,17.6c0.2,2,0.7,4,1.6,5.9c0.6,1,1.6,1.7,2.7,2.1l7.8,2.1C166.6,203.6,166.5,204,160.7,204z"/>
<path class="st0" d="M89.4,204.1c0,0,1,0.7,5.8,0.7h65.5c4.3,0,5.8-0.7,5.8-0.7v-0.5c0,0,0,0.5-5.8,0.5H95.2c-5.8,0-5.8-0.5-5.8-0.5
	S89.4,204.1,89.4,204.1z"/>
<path class="st0" d="M89.4,204.1c0,0,1,0.7,5.8,0.7h65.5c4.3,0,5.8-0.7,5.8-0.7v-0.5c0,0,0,0.5-5.8,0.5H95.2c-5.8,0-5.8-0.5-5.8-0.5
	S89.4,204.1,89.4,204.1z"/>
<rect x="11.6" y="10" class="st0" width="233.5" height="131.4"/>
<ellipse transform="matrix(8.976350e-02 -0.996 0.996 8.976350e-02 18.8464 184.6639)" class="st0" cx="110.5" cy="82" rx="7.2" ry="7.2"/>
<path class="st0" d="M148.9,85.5c0.2-1.9,0.2-3.8,0.1-5.7l6.3-1.4c-0.3-4.3-1.3-8.5-2.9-12.5l-6.4,1.4c-1.4-3.5-3.4-6.8-5.8-9.7
	l4.3-4.9c-2.8-3.3-6.1-6.1-9.7-8.5l-4.3,4.9c-3.2-2-6.7-3.5-10.4-4.4l0.6-6.5c-4.2-1-8.5-1.4-12.8-1.1l-0.6,6.5
	c-3.8,0.3-7.5,1.1-11,2.5l-3.3-5.6c-4,1.7-7.7,3.9-11,6.6l3.3,5.6C82.5,55.1,80,58,78,61.2l-6-2.6c-2.2,3.7-3.9,7.7-5,11.8l6,2.6
	c-0.9,3.7-1.2,7.5-1,11.2l-6.3,1.4C66,90,67,94.2,68.5,98.2l6.3-1.4c1.4,3.5,3.4,6.8,5.8,9.7l-4.3,4.9c2.8,3.3,6,6.1,9.6,8.5
	l4.3-4.9c3.2,2,6.7,3.5,10.4,4.4l-0.7,6.5c4.2,1,8.5,1.4,12.8,1.1l0.6-6.5c3.8-0.3,7.5-1.1,11-2.5l3.3,5.6c4-1.7,7.7-3.9,11-6.6
	l-3.3-5.6c2.9-2.5,5.4-5.3,7.4-8.5l6,2.6c2.2-3.7,3.9-7.7,5-11.8l-6-2.6C148.3,89.2,148.6,87.4,148.9,85.5z"/>
<ellipse transform="matrix(8.976350e-02 -0.996 0.996 8.976350e-02 101.6797 212.0337)" class="st0" cx="166.8" cy="50.4" rx="6.8" ry="6.8"/>
<path class="st0" d="M184.8,52c0.1-1.4,0.1-2.7-0.1-4.1l5.6-2.6c-0.8-3.5-2.3-6.7-4.4-9.5l-5.6,2.6c-1.8-2-4.1-3.6-6.6-4.7l0.6-6.2
	c-3.4-1.1-6.9-1.4-10.5-0.9l-0.6,6.2c-2.7,0.6-5.2,1.7-7.4,3.4l-5.1-3.6c-2.6,2.4-4.7,5.3-6.1,8.6l5.1,3.6c-0.9,2.6-1.1,5.4-0.7,8.1
	l-5.6,2.6c0.8,3.5,2.3,6.7,4.4,9.5l5.6-2.6c1.8,2,4.1,3.6,6.6,4.7l-0.6,6.2c3.4,1.1,6.9,1.4,10.5,0.9l0.6-6.2
	c2.7-0.6,5.2-1.7,7.4-3.4l5.1,3.5c2.6-2.4,4.7-5.3,6-8.6l-5.1-3.6C184.4,54.7,184.6,53.4,184.8,52z"/>
</svg>
