<?xml version="1.0" encoding="utf-8"?>
<!-- Generator: Adobe Illustrator 19.2.1, SVG Export Plug-In . SVG Version: 6.00 Build 0)  -->
<svg version="1.1" id="Layer_1" xmlns="http://www.w3.org/2000/svg" xmlns:xlink="http://www.w3.org/1999/xlink" x="0px" y="0px"
	 viewBox="0 0 256 256" style="enable-background:new 0 0 256 256;" xml:space="preserve">
<style type="text/css">
	.st0{fill:none;stroke:#FF4900;stroke-width:2;stroke-miterlimit:10;}
</style>
<g>
	<path class="st0" d="M255,177.6v17.1c0,3.5-2.8,6.3-6.3,6.3H7.3c-3.5,0-6.3-2.8-6.3-6.3v-17.1H255z"/>
	<g>
		<path class="st0" d="M255,32.4c0-3.5-2.8-6.3-6.3-6.3H7.3C3.8,26.1,1,29,1,32.4v145.1h254V32.4z"/>
	</g>
	<path class="st0" d="M160.7,229.1c-17.9,0-51.1,0-65.5,0c-5.8,0-5.8-0.5-5.8-0.5l7.8-2.1c0,0,1.9-0.6,2.7-2.1
		c1.2-2.3,1.6-5.9,1.6-5.9l1.3-17.6h50.4l1.3,17.6c0,0,0.3,3.6,1.6,5.9c0.8,1.5,2.7,2.1,2.7,2.1l7.8,2.1
		C166.6,228.7,166.5,229.1,160.7,229.1z"/>
	<path class="st0" d="M160.7,229.1c-17.9,0-51.1,0-65.5,0c-5.8,0-5.8-0.5-5.8-0.5l7.8-2.1c0,0,1.9-0.6,2.7-2.1
		c1.2-2.3,1.6-5.9,1.6-5.9l1.3-17.6h50.4l1.3,17.6c0,0,0.3,3.6,1.6,5.9c0.8,1.5,2.7,2.1,2.7,2.1l7.8,2.1
		C166.6,228.7,166.5,229.1,160.7,229.1z"/>
	<path class="st0" d="M89.4,229.2c0,0,1,0.7,5.8,0.7c14.4,0,47.6,0,65.5,0c4.3,0,5.8-0.7,5.8-0.7v-0.5c0,0,0,0.5-5.8,0.5
		c-17.9,0-51.1,0-65.5,0c-5.8,0-5.8-0.5-5.8-0.5L89.4,229.2z"/>
	<path class="st0" d="M89.4,229.2c0,0,1,0.7,5.8,0.7c14.4,0,47.6,0,65.5,0c4.3,0,5.8-0.7,5.8-0.7v-0.5c0,0,0,0.5-5.8,0.5
		c-17.9,0-51.1,0-65.5,0c-5.8,0-5.8-0.5-5.8-0.5L89.4,229.2z"/>
	<rect x="11.6" y="35.1" class="st0" width="233.5" height="131.4"/>
</g>
<g>
	
		<ellipse transform="matrix(8.974130e-02 -0.996 0.996 8.974130e-02 -6.2067 207.518)" class="st0" cx="110.4" cy="107.2" rx="7.2" ry="7.2"/>
	<path class="st0" d="M148.9,110.6c0.2-1.9,0.2-3.8,0.1-5.7l6.3-1.4c-0.3-4.4-1.3-8.6-2.9-12.5l-6.3,1.4c-1.5-3.5-3.4-6.8-5.8-9.7
		l4.3-4.9c-2.8-3.3-6-6.1-9.7-8.5l-4.3,4.9c-3.2-1.9-6.7-3.5-10.4-4.4l0.6-6.5c-2.1-0.5-4.2-0.8-6.4-1c-2.2-0.2-4.3-0.2-6.4-0.1
		l-0.6,6.5c-3.8,0.3-7.5,1.2-11,2.5l-3.3-5.6c-4,1.7-7.7,3.9-11,6.6l3.3,5.6c-2.9,2.4-5.4,5.3-7.4,8.5l-6-2.6
		c-2.2,3.6-3.9,7.6-5,11.8l6,2.6c-0.4,1.8-0.7,3.7-0.9,5.6c-0.2,1.9-0.2,3.8-0.1,5.7l-6.3,1.4c0.3,4.4,1.3,8.6,2.9,12.5l6.3-1.4
		c1.5,3.5,3.4,6.8,5.8,9.7l-4.3,4.9c2.8,3.3,6,6.1,9.7,8.5l4.3-4.9c3.2,1.9,6.7,3.5,10.4,4.4l-0.6,6.5c2.1,0.5,4.2,0.8,6.4,1
		c2.2,0.2,4.3,0.2,6.4,0.1l0.6-6.5c3.8-0.3,7.5-1.2,11-2.5l3.3,5.6c4-1.7,7.7-3.9,11-6.6l-3.3-5.6c2.9-2.4,5.4-5.3,7.4-8.5l6,2.6
		c2.2-3.6,3.9-7.6,5-11.8l-6-2.6C148.4,114.3,148.7,112.5,148.9,110.6z"/>
</g>
<g>
	
		<ellipse transform="matrix(8.974130e-02 -0.996 0.996 8.974130e-02 76.6647 234.9283)" class="st0" cx="166.9" cy="75.5" rx="6.8" ry="6.8"/>
	<path class="st0" d="M184.8,77.1c0.1-1.4,0.1-2.8-0.1-4.1l5.6-2.6c-0.8-3.5-2.3-6.7-4.4-9.5l-5.6,2.6c-1.8-2-4.1-3.6-6.6-4.7
		l0.6-6.2c-1.6-0.5-3.4-0.9-5.2-1.1s-3.6-0.1-5.3,0.1l-0.6,6.2c-2.7,0.6-5.2,1.8-7.4,3.4l-5.1-3.6c-2.6,2.4-4.7,5.3-6.1,8.6l5.1,3.6
		c-0.4,1.3-0.7,2.6-0.8,4s-0.1,2.8,0.1,4.1l-5.6,2.6c0.8,3.5,2.3,6.7,4.4,9.5l5.6-2.6c1.8,2,4.1,3.6,6.6,4.7l-0.6,6.2
		c1.6,0.5,3.4,0.9,5.2,1.1s3.6,0.1,5.3-0.1l0.6-6.2c2.7-0.6,5.2-1.8,7.4-3.4l5.1,3.6c2.6-2.4,4.7-5.3,6.1-8.6l-5.1-3.6
		C184.4,79.8,184.6,78.5,184.8,77.1z"/>
</g>
</svg>
