<?xml version="1.0" encoding="utf-8"?>
<!-- Generator: Adobe Illustrator 19.2.1, SVG Export Plug-In . SVG Version: 6.00 Build 0)  -->
<svg version="1.1" id="Layer_1" xmlns="http://www.w3.org/2000/svg" xmlns:xlink="http://www.w3.org/1999/xlink" x="0px" y="0px"
	 viewBox="0 0 800 400" style="enable-background:new 0 0 800 400;" xml:space="preserve">
<style type="text/css">
	.st0{fill:#FF4900;}
</style>
<g>
	<path class="st0" d="M277.6,41.9c-6.6-2.5-13.9,0.8-16.4,7.4c-9.2,24.1-18.4,48.2-26.6,72.6c-1.7,5.2-3.5,10.3-5.1,15.5
		c-1.3,4-5.8,7.8-10,8.3c-34.3,4.3-68.8,7.4-103.3,9.3c-8.7,0.5-17.5,0.9-26.3,1.2c-1.9,0.1-3-1.4-2.4-3.2
		c6.7-19.2,13.9-38.2,21.9-56.8c3.6-8.3,7.4-16.5,11.2-24.8c0.8-1.8,1.7-3.6,2-5.6c0.6-3.7-0.6-7.6-3.1-10.4c-6.2-7-18-4.8-21.3,3.9
		c-8.1,20.9-16.2,41.8-23.5,63c-8.8,25.6-17,51.4-24,77.5c-7.2,26.9-13.4,54-18.4,81.4c-4.7,25.7-8.3,51.6-11.2,77.5
		c-0.8,7.6-3.3,16.5,2.3,22.9c7.2,8.1,21.1,5.7,24.7-5.2c0.5-1.4,0.7-3,0.7-4.5c0.3-22.7,1.4-45.2,4-67.8
		c3.2-27.5,8.1-54.7,14.4-81.6c2.9-12.3,6.1-24.5,9.7-36.6c1.5-5,7-9.7,12.2-10.3c33.9-4.2,68-6.9,102.1-8.8
		c8.7-0.5,17.5-0.9,26.2-1.2c1.8-0.1,2.9,1.3,2.4,3.1c-5.8,20.1-11,40.4-15.6,60.8c-2.2,9.9-4.3,19.8-6.3,29.8
		c-0.7,3.4-1.9,7.1-1.7,10.6c0.3,3.8,2.3,7.3,5.3,9.4c7.7,5.4,18.8,0.6,20-8.8c4-31.5,10.1-62.8,18.7-93.4
		c9.2-33.2,20.6-65.9,34.7-97.4c3.1-7,6.5-13.8,9.6-20.8C287.6,52.4,284.4,44.4,277.6,41.9C271.1,39.4,284.2,44.4,277.6,41.9z"/>
	<g>
		<path class="st0" d="M420.5,245.8c4.6-26.8,9.8-53.5,16.3-79.9c7.3-29.6,16.4-58.8,26.1-87.6c4.7-13.8,9.7-27.5,14.7-41.2
			c2.3-6.4,9.4-9.9,15.8-7.8c6.4,2,10.2,9,8.4,15.5c-0.8,2.8-2.4,5.5-3.6,8.1c-1.7,3.7-3.3,7.4-5,11.2c-3.5,8-6.8,16.1-9.9,24.3
			c-13.2,34.9-23.3,70.9-30.3,107.6c-3.4,17.6-5.7,35.4-7.5,53.3c-0.7,7.1-7.4,12.3-14.4,11.3C424.2,259.6,419.3,252.8,420.5,245.8z
			"/>
	</g>
	<g>
		<path class="st0" d="M473.7,241.6c4.3-26.2,9.2-52.1,15.3-77.9c7-29.6,15.9-58.7,25.5-87.6c4.6-13.9,9.6-27.6,14.5-41.5
			c2.2-6.4,9.3-9.9,15.8-8c6.4,2,10.3,8.9,8.5,15.5c-0.7,2.6-2.2,5.2-3.3,7.6c-1.8,3.8-3.4,7.7-5.1,11.6c-3.5,8-6.7,16.1-9.7,24.3
			c-13,34.7-22.6,70.7-29.2,107.1c-3.1,17.3-5.2,34.7-6.9,52.2c-0.7,7.1-7.3,12.3-14.3,11.4C477.5,255.3,472.6,248.6,473.7,241.6z"
			/>
	</g>
	<g>
		<path class="st0" d="M543.1,131.6c16.6-27.5,45-49.4,77-55.3c9.2-1.7,18.9-2.6,28.2-1.8c7.2,0.6,14.2,2.3,20.7,5.5
			c15.1,7.4,25.1,21.2,29,37.3c4.3,17.5,2.1,36.3-3.1,53.4c-5.7,18.5-16,35.6-30.2,48.7c-13.2,12.3-29.6,20.9-47.2,24.8
			c-19.4,4.2-40.5,4-58.3-5.6c-15.8-8.5-26.4-23.9-29.7-41.4c-3.3-18,0-37,7.4-53.6C538.7,139.3,540.8,135.4,543.1,131.6z
			 M564.9,144.4c-8.7,15.4-14.7,34.6-10.7,52.3c1.6,7,5.2,13.5,10.6,18.2c7.1,6.2,16.5,9.3,25.8,9.8c18.4,1,36.5-4.7,50.9-16.2
			c13.8-11,23-26.4,28.4-43c3.5-10.9,5.5-22.7,4.9-34.2c-0.4-7.2-1.9-14.3-5.7-20.5c0,0-0.1-0.2,0.1,0.1c-3.1-4.8-7.2-8.3-12.2-10.9
			c0.3,0.1,0.1,0,0.1,0.1c-6.6-3.3-14.1-3.9-21.3-3.7c-8.3,0.2-17,2.8-24.6,6.1c-10.9,4.7-21,11.6-29.4,19.9
			c-6.7,6.6-12.3,14-16.9,22.1L564.9,144.4z"/>
	</g>
	<g>
		<path class="st0" d="M720.6,170.2c2.5-19,5.5-37.9,9.4-56.7c4.4-21.3,9.9-42.5,16.2-63.3c2.8-9.4,5.9-18.7,9.1-28
			c3.7-10.9,19.4-11.4,23.8-0.7c1.6,3.9,0.8,7.7-0.7,11.4c-2.4,5.9-4.7,11.8-6.9,17.7c-10.2,27-18.7,54.6-25.7,82.7
			c-3.2,13.1-5.9,26.4-8.4,39.7c-0.8,4.4-5.2,7.5-9.7,6.8C723.2,178.9,720.1,174.7,720.6,170.2z"/>
	</g>
	<path class="st0" d="M424.6,148.3c-0.4-16.9-5.2-34-18.9-44.9c-13-10.4-30.1-12.4-46.3-10.7c-16.3,1.6-32.2,7.9-46,16.4
		c-15.8,9.7-29.3,22.8-40,37.8c-12.3,17.3-19.7,38.5-21.1,59.7c-1,15.2,1.4,31.1,10.3,43.8c9.8,14.2,26.4,21,43.2,22
		c8.4,0.5,16.6-0.3,24.9-1.7c10.6-1.8,21-4.7,30.8-9.2c16.4-7.6,30.7-19.7,41-34.6c1.8-2.7,3.5-5.4,5.2-8.3c1.5-2.7,2.9-5.4,2.8-8.6
		c-0.2-8.4-8.7-14.5-16.8-11.8c-3.4,1.2-6.2,3.8-7.7,7.1c-4.7,10.6-11.4,19.7-20.2,27.2c-0.1,0.1,0.3-0.2,0.1-0.1
		c-6.8,5.3-14,9.5-22.1,12.4c-7.9,2.8-16.4,4.7-24.8,5.5c-8.2,0.8-16.9,0.3-24.4-2.9c-8.2-3.5-13.6-10.1-15.9-18.6
		c-2-7.2-1.9-14.8-1.1-22.3c0.5-4.3,4.5-8.1,8.9-8.5c5.9-0.5,11.9-0.9,17.8-1.4c9.7-0.8,19.4-1.5,29.1-2.3
		c5.3-0.4,10.5-0.8,15.8-1.2c11.9-0.9,23.8-1.9,35.7-2.8c8.3-0.6,16.7-1.3,25-1.9c0.2,0,0.4,0,0.5,0c5.2-0.4,9.7-4.1,10.9-9.4
		C423.4,169,424.7,158.7,424.6,148.3z M337.4,172.7c-13,1.1-26,2.3-39.1,3.4l-8.5,0.7c-2.4,0.2-3.5-1.3-2.4-3.5
		c10.6-22,28.9-42.4,51.2-52.5c9.4-4.3,19.6-6.9,30.1-7c11.7-0.1,23.9,3.2,29.2,14.8c3.9,8.6,4.3,21.8,2.8,31.2
		c-0.7,4-4.6,7.6-8.7,8L337.4,172.7z"/>
	
		<ellipse transform="matrix(9.966136e-02 -0.995 0.995 9.966136e-02 435.6735 914.9105)" class="st0" cx="723.4" cy="216.7" rx="17.3" ry="14.3"/>
</g>
</svg>
