<?xml version="1.0" encoding="utf-8"?>
<!-- Generator: Adobe Illustrator 19.2.1, SVG Export Plug-In . SVG Version: 6.00 Build 0)  -->
<svg version="1.1" xmlns="http://www.w3.org/2000/svg" xmlns:xlink="http://www.w3.org/1999/xlink" x="0px" y="0px"
	 viewBox="0 0 640 360" style="enable-background:new 0 0 640 360;" xml:space="preserve">
<style type="text/css">
	.st0{display:none;}
	.st1{display:inline;}
	.st2{font-family:'MyriadPro-Bold';}
	.st3{font-size:72px;}
	.st4{display:inline;fill:none;stroke:#000000;}
	.st5{fill:#32D4D6;}
</style>
<g id="Layer_1" class="st0">
	<text transform="matrix(1 0 0 1 -18.4075 361.1952)" class="st1 st2 st3">My name is Ryan</text>
	<g class="st1">
		<g>
			<path d="M-20.7,153.3c-2.5,21.9-4.9,43.9-7.4,65.8c17-4.7,34.1-9.2,51.2-13.5c2.4-21.1,4.7-42.1,7.1-63.2
				c10.2-2,20.5-3.9,30.8-5.7c-6,53.5-12,107.1-18,160.6c-10.4,3.2-20.9,6.5-31.3,9.9c2.6-22.9,5.1-45.7,7.7-68.6
				c-17.2,4.7-34.3,9.7-51.3,14.9c-2.7,23.8-5.3,47.6-8,71.5c-10.5,3.8-21,7.7-31.5,11.7c6.6-58.6,13.1-117.2,19.7-175.7
				C-41.4,158.2-31,155.7-20.7,153.3z"/>
			<path d="M97.7,238.5c-1.3,14.9,15.2,17,25.9,14.3c9.1-2.3,19.6-5.9,28.1-10.6c0.6,8.6,1,12.8,1.6,21.1c-11.4,7-24.3,11.8-37,15.3
				c-32.6,9.1-50.4-11.3-47.1-43c3.3-31.2,24-65.6,57.1-71c29.1-4.7,41.3,21.4,38.2,46.7c-0.7,5.6-1.8,10.8-2.5,13.3
				C140.5,228.9,119.1,233.6,97.7,238.5z M136.9,207.1c1.3-9.5-3-21.4-15-19.1c-11.9,2.3-19.3,15.8-21.7,26.6
				C112.4,211.9,124.6,209.4,136.9,207.1z"/>
			<path d="M193.7,111.9c10.2-0.8,20.3-1.5,30.5-2.1c-5.4,48.6-10.9,97.2-16.3,145.8c-10.4,2-20.7,4.2-31,6.5
				C182.5,212,188.1,161.9,193.7,111.9z"/>
			<path d="M248.9,108.5c10.1-0.4,20.2-0.7,30.4-0.9c-5.1,46-10.3,91.9-15.4,137.9c-10.3,1.7-20.6,3.4-30.9,5.3
				C238.3,203.4,243.6,155.9,248.9,108.5z"/>
			<path d="M390.5,188.7c-3.2,27.9-30.7,45.4-56.6,49c-27,3.8-49-12.6-45.7-40.7c3.4-29.3,27.4-51.9,57.6-51.8
				C370,145.3,393.5,162.5,390.5,188.7z M319.8,193.3c-1.4,11.7,2.8,26.8,17,25.1c12.9-1.5,21.1-15.5,22.3-27.7
				c1.1-10.8-2.6-26-16.3-25.9C328.5,165.1,321.2,181.5,319.8,193.3z"/>
			<path d="M402.6,216.7c1-8.7,9-15.4,19.5-15.6c10.5-0.2,16.8,6,16,14.2c-0.8,8.1-8.5,14.3-19.2,14.9
				C408.1,230.9,401.6,225.3,402.6,216.7z M411.7,193.1c1.3-25.3,2.7-50.5,3.9-75.8c10.4,0.7,20.7,1.6,31.1,2.6
				c-4.2,24.3-8.4,48.7-12.5,73C425.3,192.9,420.8,192.9,411.7,193.1z"/>
		</g>
	</g>
	<text transform="matrix(1 0 0 1 163.0742 471.7773)" class="st1 st3" style="font-family:'HoboStd';">Hello!</text>
	<path class="st4" d="M-16.4,316.1c-26.2,9.5-52.4,19.2-78.5,29.1"/>
	<path class="st4" d="M-16.4,339.1c-26.2,9.5-52.4,19.2-78.5,29.1"/>
	<path class="st4" d="M66.7,273.1c-26.2,9.5-52.4,19.2-78.5,29.1"/>
	<path class="st4" d="M-68.2,164.8c21.3-5.4,42.7-10.5,64.1-15.5"/>
	<path class="st4" d="M-68.2,179.9c50.6-12.8,101.3-25,152.1-36.7"/>
	<path class="st4" d="M14.1,145.4c20.9-4.1,41.9-8.1,63-11.8"/>
	<path class="st4" d="M60.6,291.7c-22.2,6.9-44.3,13.9-66.3,21"/>
	<path class="st4" d="M-78.7,401.8c11.4-102.1,22.8-204.2,34.3-306.3"/>
	<path class="st4" d="M-74.1,231.3c47.6-13.2,95.4-25.8,143.4-37.9"/>
	<path class="st4" d="M65.2,225.3c-47.8,13.2-95.3,27-142.7,41.3"/>
</g>
<g id="Layer_2">
	<g>
		<g>
			<path class="st5" d="M78.9,87.5c-5.3,16.8-8,42.2-10.2,62c15-4.2,30-8.2,45.1-12c3.6-0.9,6.3-4,6.7-7.7c1.9-17,4.1-37.1,5.5-50.5
				c0.4-3.9,3.4-7.1,7.2-7.9c7.4-1.4,15.6-2.9,22.8-4.2c2.6-0.5,4.1,1.2,3.4,3.7c-3.8,14.3-6.5,38.6-8.5,56.7
				c-1.2,10.7-2.4,21.4-3.6,32.1c-2.3,20.4-5.1,46-3.8,61.7c0.2,2.6-1.6,5.5-4.2,6.2c-6.9,2.1-14.9,4.7-22.1,7
				c-4.8,1.5-8.3-1.3-7.8-6.4c1.8-16,4.5-40.6,6.6-59.3c-15.3,4.2-30.5,8.6-45.6,13.2c-3.5,1-6,4-6.3,7.6
				c-2.6,23.5-6.7,61.9-6.2,83.7c0.1,2.4-1.7,5-3.9,5.8c-7.4,2.7-16.1,5.9-23.8,8.8c-4.2,1.6-7.2-0.8-6.7-5.2
				c6.2-55.8,14.5-130,20.7-185.3c0.4-3.4,3.4-6.9,6.7-7.7c7.7-1.9,16.6-4.1,24.3-5.9C78.1,83,79.7,84.7,78.9,87.5z"/>
			<path class="st5" d="M197.6,168.2c-2,0.5-3.4,2.4-3.1,4.5c1.6,11.5,16.1,13,25.8,10.5c7.7-2,16.5-4.8,24.1-8.5
				c2.2-1,4.1,0.1,4.3,2.5c0.4,4.9,0.6,8.5,1,13.4c0.2,2-0.9,3.8-2.6,4.8c-10.7,6.1-22.6,10.4-34.2,13.7
				c-32.6,9.1-50.4-11.3-47.1-43c3.3-31.2,24-65.6,57.1-71c29.1-4.7,41.3,21.4,38.2,46.7c-0.4,3.4-1,6.7-1.6,9.3
				c-0.4,2.1-2.6,4.2-4.7,4.7C235.7,159.6,216.6,163.8,197.6,168.2z M228.9,138.3c2.9-0.6,5.1-3.4,4.8-6.4
				c-0.7-8-5.4-15.5-15.1-13.6c-11.9,2.3-19.3,15.8-21.7,26.6C207.5,142.6,218.2,140.4,228.9,138.3z"/>
			<path class="st5" d="M294.5,41.9c7.6-0.6,15.2-1.1,22.8-1.6c1.9-0.1,3.4,1.5,3.2,3.3c-5.2,46.2-10.3,92.4-15.5,138.6
				c-0.2,2.2-1.9,3.9-4,4.3c-7.8,1.6-15.6,3.2-23.4,4.9c-2,0.4-3.8-1.2-3.6-3.3c5.3-47.3,10.6-94.6,15.9-141.9
				C290.2,44,292.1,42.1,294.5,41.9z"/>
			<path class="st5" d="M349.9,38.7c7.5-0.3,15.1-0.5,22.6-0.7c1.8,0,3.2,1.5,3,3.3c-4.9,43.6-9.7,87.2-14.6,130.7
				c-0.2,2.2-1.9,4-4.2,4.4c-7.7,1.3-15.5,2.6-23.2,4c-2,0.4-3.7-1.3-3.5-3.3c5-44.7,10-89.3,15-134
				C345.4,40.7,347.4,38.8,349.9,38.7z"/>
			<path class="st5" d="M487.2,119c-3.2,27.9-30.7,45.4-56.6,49c-27,3.8-49-12.6-45.7-40.7c3.4-29.3,27.4-51.9,57.6-51.8
				C466.7,75.7,490.2,92.9,487.2,119z M416.5,123.7c-1.4,11.7,2.8,26.8,17,25.1c12.9-1.5,21.1-15.5,22.3-27.7
				c1.1-10.8-2.6-26-16.3-25.9C425.2,95.4,417.9,111.9,416.5,123.7z"/>
			<path class="st5" d="M499.3,147.1c1-8.7,9-15.4,19.5-15.6c10.5-0.2,16.8,6,16,14.2c-0.8,8.1-8.5,14.3-19.2,14.9
				C504.8,161.3,498.3,155.6,499.3,147.1z M508.6,120.3c1.2-22.8,2.4-45.7,3.6-68.5c0.1-2.2,2-4,4.3-3.8c7.6,0.6,15.1,1.2,22.7,1.9
				c2.3,0.2,4,2.4,3.6,4.7c-3.8,22.1-7.6,44.2-11.3,66.3c-0.2,1.4-1.5,2.5-3,2.5c-6.4,0-10.5,0.1-16.8,0.2
				C509.9,123.4,508.5,122,508.6,120.3z"/>
		</g>
		<g>
			<path class="st5" d="M133,287.5c-0.2-5.8-0.4-12.9-0.4-19.9h-0.2c-1.5,6.2-3.5,13.1-5.4,18.8l-5.9,18.9h-8.6l-5.2-18.8
				c-1.6-5.7-3.2-12.6-4.4-18.9h-0.1c-0.3,6.6-0.5,14-0.9,20.1l-0.9,18.4H90.9l3.1-48.5h14.6l4.8,16.2c1.5,5.6,3,11.7,4.1,17.4h0.2
				c1.4-5.6,3-12,4.6-17.4l5.2-16.1h14.3l2.7,48.5h-10.7L133,287.5z"/>
			<path class="st5" d="M160.7,270.9l5.3,17.3c0.6,2.1,1.3,4.7,1.7,6.6h0.2c0.5-1.9,1.1-4.5,1.6-6.6l4.3-17.3h11.7l-8.2,23.2
				c-5,14-8.4,19.6-12.4,23.1c-3.8,3.3-7.8,4.5-10.6,4.8l-2.3-9.3c1.4-0.2,3.1-0.9,4.8-1.9c1.7-0.9,3.5-2.6,4.5-4.4
				c0.4-0.5,0.6-1.1,0.6-1.6c0-0.4-0.1-0.9-0.5-1.8l-12.9-32.2H160.7z"/>
			<path class="st5" d="M204.7,282.1c0-4.4-0.1-8.1-0.3-11.2h9.5l0.5,4.8h0.2c1.4-2.2,5-5.6,10.9-5.6c7.2,0,12.6,4.8,12.6,15.1v20.9
				h-10.9v-19.5c0-4.5-1.6-7.6-5.5-7.6c-3,0-4.8,2.1-5.5,4.1c-0.3,0.6-0.4,1.7-0.4,2.7v20.3h-10.9V282.1z"/>
			<path class="st5" d="M266.9,306.1l-0.6-3.5h-0.2c-2.3,2.8-5.9,4.3-10.1,4.3c-7.1,0-11.4-5.2-11.4-10.8c0-9.1,8.2-13.5,20.7-13.5
				v-0.5c0-1.9-1-4.5-6.4-4.5c-3.6,0-7.4,1.2-9.7,2.7l-2-7.1c2.4-1.4,7.3-3.1,13.7-3.1c11.7,0,15.5,6.9,15.5,15.2v12.2
				c0,3.4,0.1,6.6,0.5,8.6H266.9z M265.6,289.4c-5.8-0.1-10.2,1.3-10.2,5.5c0,2.8,1.9,4.2,4.3,4.2c2.7,0,5-1.8,5.7-4
				c0.1-0.6,0.2-1.2,0.2-1.9V289.4z"/>
			<path class="st5" d="M284.9,282.1c0-4.4-0.1-8.1-0.3-11.2h9.2l0.5,4.8h0.2c1.5-2.2,4.6-5.5,10.7-5.5c4.5,0,8.1,2.3,9.6,6h0.1
				c1.3-1.8,2.9-3.2,4.5-4.2c1.9-1.2,4.1-1.7,6.7-1.7c6.8,0,11.9,4.8,11.9,15.3v20.7h-10.7v-19.2c0-5.1-1.7-8.1-5.2-8.1
				c-2.5,0-4.3,1.7-5,3.8c-0.3,0.8-0.4,1.9-0.4,2.8v20.6h-10.7v-19.7c0-4.5-1.6-7.5-5-7.5c-2.8,0-4.5,2.2-5.1,4
				c-0.4,0.9-0.4,1.9-0.4,2.7v20.5h-10.7V282.1z"/>
			<path class="st5" d="M355.3,292c0.4,4.5,4.8,6.7,9.9,6.7c3.7,0,6.8-0.5,9.7-1.4l1.4,7.4c-3.6,1.4-8,2.2-12.7,2.2
				c-12,0-18.8-6.9-18.8-17.9c0-8.9,5.5-18.8,17.8-18.8c11.4,0,15.7,8.9,15.7,17.6c0,1.9-0.2,3.5-0.4,4.3H355.3z M368.2,284.5
				c0-2.7-1.2-7.1-6.2-7.1c-4.6,0-6.5,4.2-6.8,7.1H368.2z"/>
			<path class="st5" d="M410.7,261.1c0,3-2.3,5.5-5.9,5.5c-3.5,0-5.8-2.4-5.7-5.5c-0.1-3.2,2.2-5.5,5.8-5.5S410.6,257.9,410.7,261.1
				z M399.4,306.1v-35.2h10.9v35.2H399.4z"/>
			<path class="st5" d="M419.1,296.5c2,1.2,6.2,2.7,9.4,2.7c3.3,0,4.7-1.2,4.7-3c0-1.8-1.1-2.7-5.2-4c-7.3-2.4-10.1-6.4-10-10.6
				c0-6.6,5.6-11.5,14.3-11.5c4.1,0,7.8,0.9,9.9,2l-1.9,7.6c-1.6-0.9-4.6-2-7.6-2c-2.7,0-4.2,1.1-4.2,2.9c0,1.7,1.4,2.5,5.7,4
				c6.7,2.3,9.5,5.7,9.6,10.9c0,6.6-5.2,11.4-15.3,11.4c-4.6,0-8.7-1-11.4-2.4L419.1,296.5z"/>
			<path class="st5" d="M465.3,258.2c3.5-0.6,8.8-1,14.6-1c7.2,0,12.2,1.1,15.7,3.8c2.9,2.3,4.5,5.7,4.5,10.2c0,6.2-4.4,10.4-8.6,12
				v0.2c3.4,1.4,5.3,4.6,6.5,9.1c1.5,5.5,3,11.8,4,13.7h-11.2c-0.8-1.4-1.9-5.3-3.4-11.3c-1.3-6-3.4-7.7-7.8-7.8h-3.3v19.1h-10.9
				V258.2z M476.2,279.1h4.3c5.5,0,8.7-2.7,8.7-7c0-4.5-3-6.7-8.1-6.8c-2.7,0-4.2,0.2-5,0.4V279.1z"/>
			<path class="st5" d="M516.1,270.9l5.3,17.3c0.6,2.1,1.3,4.7,1.7,6.6h0.2c0.5-1.9,1.1-4.5,1.6-6.6l4.3-17.3H541l-8.2,23.2
				c-5,14-8.4,19.6-12.4,23.1c-3.8,3.3-7.8,4.5-10.6,4.8l-2.3-9.3c1.4-0.2,3.1-0.9,4.8-1.9c1.7-0.9,3.5-2.6,4.5-4.4
				c0.4-0.5,0.6-1.1,0.6-1.6c0-0.4-0.1-0.9-0.5-1.8l-12.9-32.2H516.1z"/>
			<path class="st5" d="M565.1,306.1l-0.6-3.5h-0.2c-2.3,2.8-5.9,4.3-10.1,4.3c-7.1,0-11.4-5.2-11.4-10.8c0-9.1,8.2-13.5,20.7-13.5
				v-0.5c0-1.9-1-4.5-6.4-4.5c-3.6,0-7.4,1.2-9.7,2.7l-2-7.1c2.4-1.4,7.3-3.1,13.7-3.1c11.7,0,15.5,6.9,15.5,15.2v12.2
				c0,3.4,0.1,6.6,0.5,8.6H565.1z M563.8,289.4c-5.8-0.1-10.2,1.3-10.2,5.5c0,2.8,1.9,4.2,4.3,4.2c2.7,0,5-1.8,5.7-4
				c0.1-0.6,0.2-1.2,0.2-1.9V289.4z"/>
			<path class="st5" d="M583.1,282.1c0-4.4-0.1-8.1-0.3-11.2h9.5l0.5,4.8h0.2c1.4-2.2,5-5.6,10.9-5.6c7.2,0,12.6,4.8,12.6,15.1v20.9
				h-10.9v-19.5c0-4.5-1.6-7.6-5.5-7.6c-3,0-4.8,2.1-5.5,4.1c-0.3,0.6-0.4,1.7-0.4,2.7v20.3h-10.9V282.1z"/>
		</g>
	</g>
</g>
</svg>
