<?xml version="1.0" encoding="utf-8"?>
<!-- Generator: Adobe Illustrator 19.2.1, SVG Export Plug-In . SVG Version: 6.00 Build 0)  -->
<svg version="1.1" id="Layer_1" xmlns="http://www.w3.org/2000/svg" xmlns:xlink="http://www.w3.org/1999/xlink" x="0px" y="0px"
	 viewBox="0 0 256 256" style="enable-background:new 0 0 256 256;" xml:space="preserve">
<style type="text/css">
	.st0{fill:none;stroke:#32D4D6;stroke-width:2;stroke-miterlimit:10;}
	.st1{fill:none;stroke:#32D4D6;stroke-miterlimit:10;}
</style>
<path class="st0" d="M181,238H43V18h170v188C200.5,218.5,193.5,225.5,181,238z"/>
<polyline class="st0" points="181,238 181,206 213,206 "/>
<path class="st0" d="M174.8,61.7c-0.2-2.9,1.6-10.7,8-15.4s13.3-7.4,18.5-16c0.1,7.2-2.2,19.7-5.6,27c-4.1,8.7-10.1,10-12.9,10.6"/>
<path class="st0" d="M162.9,85.4c-4.9-3.8-5.3-5.5-5.3-5.5s1.5-0.8,1.6-1.9c0.1-1.4,1.7-3,3-3.6c1.1-0.5,5.9-6,6-7.2
	c0.2-1.1,0.8-2.6,2.8-3.3c1.4-0.5,2.8-3.3,2.8-3.3s1.7,1.8,4.8,4.2c3.1,2.4,5.4,3.6,5.4,3.6s-2.3,2-2.5,3.5
	c-0.2,2.1-1.5,3.1-2.5,3.5c-1,0.5-5.2,6.5-5.4,7.7c-0.2,1.4-1.4,3.4-2.7,3.8c-1.1,0.4-1.5,2.1-1.5,2.1S167.9,89.2,162.9,85.4z"/>
<path class="st0" d="M168,88.9c-0.2,1.6-0.8,3.7-2.6,6.1c-18.5,26-77.2,95-106.1,132c-3.5,4.5-6.4,2.6-7.2,2s-3.3-3,0.1-7.5
	c28.2-37.5,79.6-112,99.9-136.7c1.9-2.3,3.8-3.5,5.3-4.1"/>
<g>
	<path class="st1" d="M80,78.6V96l36.5,36.5c2.4-3.3,4.7-6.5,7-9.7L80,78.6z"/>
	<path class="st1" d="M98.2,125.6c-5.6-5.6-10.2-3.7-10.2,4.2V162c0,2.4,1.4,4.4,3.4,5.4c6.8-9.5,13.7-19.1,20.3-28.4L98.2,125.6z"
		/>
	<path class="st1" d="M160,176l8-8l-33.3-33.8c-2.4,3-4.9,6-7.4,9.1L160,176z"/>
	<path class="st1" d="M126.2,168c8,0,9.9-4.6,4.2-10.2l-8.2-8.2c-5,6.1-10,12.2-15.1,18.4H126.2z"/>
	<path class="st0" d="M88,192v-0.7"/>
	<path class="st0" d="M134.7,134.2L168,168l-8,8l-32.7-32.7"/>
	<path class="st0" d="M88,192h8v-8v8h8v-8v8h8v-8v8h8v-8v8h8v-8v8h8v-8v8h8v-8v8h8v-8v8h8v-8v8h8v-8v8h8v-8v8h8v-8v8h8v-8v8h8v-16
		l-5.7-5.7l-5.7,5.7l5.7-5.7l-5.7-5.7l-5.7,5.7l5.7-5.7L183,159l-5.7,5.7l5.7-5.7l-5.7-5.7l-5.7,5.7l5.7-5.7l-5.7-5.7l-5.7,5.7
		l5.7-5.7l-5.7-5.7l-5.7,5.7l5.7-5.7l-5.7-5.7l-5.7,5.7l5.7-5.7l-5.7-5.7l-5.7,5.7l5.7-5.7l-5.7-5.7l-5.7,5.7l5.7-5.7l-3.9-3.9"/>
	<path class="st0" d="M122.3,149.6l8.2,8.2c5.6,5.6,3.7,10.2-4.2,10.2h-19.1"/>
	<rect x="64" y="184" class="st0" width="8" height="8"/>
	<path class="st0" d="M116.5,132.5L80,96V78.6l43.5,44.1"/>
	<path class="st0" d="M91.4,167.4c-2-1-3.4-3-3.4-5.4v-32.2c0-8,4.6-9.9,10.2-4.2l13.5,13.5"/>
	<path class="st0" d="M133.3,109.3l-1.2-1.2l-5.7,5.7l5.7-5.7l-5.7-5.7l-5.7,5.7l5.7-5.7l-5.7-5.7l-5.7,5.7l5.7-5.7L115,91l-5.7,5.7
		L115,91l-5.7-5.7l-5.7,5.7l5.7-5.7l-5.7-5.7l-5.7,5.7l5.7-5.7l-5.7-5.7l-5.7,5.7l5.7-5.7l-5.7-5.7l-5.7,5.7l5.7-5.7l-5.7-5.7
		l-5.7,5.7l5.7-5.7L80,56H64v8h8h-8v8h8h-8v8h8h-8v8h8h-8v8h8h-8v8h8h-8v8h8h-8v8h8h-8v8h8h-8v8h8h-8v8h8h-8v8h8h-8v8h8h-8v8h8h-8v8
		h8h-8v8h8v8h1.8"/>
</g>
</svg>
