<?xml version="1.0" encoding="utf-8"?>
<!-- Generator: Adobe Illustrator 19.2.1, SVG Export Plug-In . SVG Version: 6.00 Build 0)  -->
<svg version="1.1" id="Layer_1" xmlns="http://www.w3.org/2000/svg" xmlns:xlink="http://www.w3.org/1999/xlink" x="0px" y="0px"
	 viewBox="0 0 256 256" style="enable-background:new 0 0 256 256;" xml:space="preserve">
<style type="text/css">
	.st0{fill:none;stroke:#4DDEDE;stroke-width:2;stroke-miterlimit:10;}
	.st1{fill:#4DDEDE;}
</style>
<g>
	<path class="st0" d="M255,177.6v17.1c0,3.5-2.8,6.3-6.3,6.3H7.3c-3.5,0-6.3-2.8-6.3-6.3v-17.1H255z"/>
	<g>
		<path class="st0" d="M255,32.4c0-3.5-2.8-6.3-6.3-6.3H7.3C3.8,26.1,1,29,1,32.4v145.1h254V32.4z"/>
	</g>
	<path class="st0" d="M160.7,229.1c-17.9,0-51.1,0-65.5,0c-5.8,0-5.8-0.5-5.8-0.5l7.8-2.1c0,0,1.9-0.6,2.7-2.1
		c1.2-2.3,1.6-5.9,1.6-5.9l1.3-17.6h50.4l1.3,17.6c0,0,0.3,3.6,1.6,5.9c0.8,1.5,2.7,2.1,2.7,2.1l7.8,2.1
		C166.6,228.7,166.5,229.1,160.7,229.1z"/>
	<path class="st0" d="M160.7,229.1c-17.9,0-51.1,0-65.5,0c-5.8,0-5.8-0.5-5.8-0.5l7.8-2.1c0,0,1.9-0.6,2.7-2.1
		c1.2-2.3,1.6-5.9,1.6-5.9l1.3-17.6h50.4l1.3,17.6c0,0,0.3,3.6,1.6,5.9c0.8,1.5,2.7,2.1,2.7,2.1l7.8,2.1
		C166.6,228.7,166.5,229.1,160.7,229.1z"/>
	<path class="st0" d="M89.4,229.2c0,0,1,0.7,5.8,0.7c14.4,0,47.6,0,65.5,0c4.3,0,5.8-0.7,5.8-0.7v-0.5c0,0,0,0.5-5.8,0.5
		c-17.9,0-51.1,0-65.5,0c-5.8,0-5.8-0.5-5.8-0.5L89.4,229.2z"/>
	<path class="st0" d="M89.4,229.2c0,0,1,0.7,5.8,0.7c14.4,0,47.6,0,65.5,0c4.3,0,5.8-0.7,5.8-0.7v-0.5c0,0,0,0.5-5.8,0.5
		c-17.9,0-51.1,0-65.5,0c-5.8,0-5.8-0.5-5.8-0.5L89.4,229.2z"/>
	<rect x="11.6" y="35.1" class="st0" width="233.5" height="131.4"/>
</g>
<g>
	<path class="st1" d="M64.8,122.3c0-0.8,0.3-1.5,0.9-2.1s1.3-0.9,2.1-0.9s1.5,0.3,2.1,0.9s0.9,1.3,0.9,2.1c0,0.8-0.3,1.5-0.9,2.1
		s-1.3,0.9-2.1,0.9s-1.5-0.3-2.1-0.9C65.1,123.8,64.8,123.1,64.8,122.3z"/>
	<path class="st1" d="M80.5,78.9h3.7v22.8h0.1c0.7-1.5,1.9-2.9,3.7-4c1.7-1.1,3.7-1.7,6-1.7c2.2,0,4,0.3,5.4,1s2.5,1.6,3.3,2.7
		s1.3,2.4,1.6,3.9c0.3,1.5,0.5,3,0.5,4.5v16.7H101v-16.6c0-1.1-0.1-2.2-0.3-3.3c-0.2-1.1-0.6-2-1.1-2.9s-1.2-1.5-2.1-2
		s-2.1-0.8-3.6-0.8c-1.3,0-2.6,0.2-3.8,0.7c-1.2,0.5-2.2,1.2-3.1,2.1c-0.9,1-1.6,2.2-2.1,3.6s-0.8,3.1-0.8,5.1v14.1h-3.7L80.5,78.9
		L80.5,78.9z"/>
	<path class="st1" d="M128.1,100h-8v18.3c0,1.3,0.3,2.2,1,2.9c0.7,0.7,1.6,1,2.9,1c0.7,0,1.4-0.1,2.1-0.3c0.7-0.2,1.4-0.4,2-0.7
		l0.3,3.3c-0.7,0.2-1.5,0.5-2.4,0.7s-1.7,0.3-2.4,0.3c-1.3,0-2.4-0.2-3.3-0.6s-1.7-0.9-2.3-1.6c-0.6-0.6-1-1.4-1.2-2.3
		c-0.3-0.9-0.4-1.8-0.4-2.8V100h-6.1v-3.3h6.1v-8.1h3.7v8.1h8V100z"/>
	<path class="st1" d="M134.6,104.7c0-0.5,0-1.2-0.1-1.9c0-0.8-0.1-1.5-0.1-2.3s-0.1-1.5-0.1-2.2s-0.1-1.2-0.1-1.6h3.7
		c0,1.1,0.1,2.1,0.1,3c0,1,0.1,1.6,0.2,1.9h0.2c0.7-1.5,1.9-2.9,3.7-4c1.7-1.1,3.7-1.7,6-1.7c1.9,0,3.6,0.5,5.1,1.4
		c1.5,1,2.7,2.5,3.3,4.7c0.9-2.1,2.2-3.7,4-4.6c1.8-1,3.6-1.5,5.6-1.5c2.2,0,4,0.3,5.4,1s2.5,1.6,3.3,2.7s1.3,2.4,1.6,3.9
		s0.5,3,0.5,4.5v16.7h-3.7v-16.6c0-1.1-0.1-2.2-0.3-3.3c-0.2-1.1-0.6-2-1.1-2.9s-1.2-1.5-2.1-2c-0.9-0.5-2.1-0.8-3.6-0.8
		c-1.7,0-3.1,0.3-4.2,0.9c-1.1,0.6-2,1.4-2.6,2.4s-1.1,2-1.3,3.2c-0.3,1.1-0.4,2.2-0.4,3.2v15.8h-3.7V108c0-2.6-0.5-4.7-1.4-6.3
		c-1-1.6-2.4-2.4-4.4-2.4c-1.3,0-2.6,0.2-3.8,0.7s-2.2,1.2-3.1,2.1c-0.9,1-1.6,2.2-2.1,3.6s-0.8,3.1-0.8,5.1v14.1h-3.7L134.6,104.7
		L134.6,104.7z"/>
	<path class="st1" d="M187.1,78.9h3.7v46h-3.7V78.9z"/>
</g>
</svg>
